<svg width="24" height="24" viewBox="0 0 24 24" fill="none" xmlns="http://www.w3.org/2000/svg">
<path d="M15 22.75H9C3.57 22.75 1.25 20.43 1.25 15V9C1.25 3.57 3.57 1.25 9 1.25H15C20.43 1.25 22.75 3.57 22.75 9V15C22.75 20.43 20.43 22.75 15 22.75ZM9 2.75C4.39 2.75 2.75 4.39 2.75 9V15C2.75 19.61 4.39 21.25 9 21.25H15C19.61 21.25 21.25 19.61 21.25 15V9C21.25 4.39 19.61 2.75 15 2.75H9Z" fill="#A9B2B7"/>
<path d="M10.7402 16.2802C10.5502 16.2802 10.3602 16.2102 10.2102 16.0602C9.92018 15.7702 9.92018 15.2902 10.2102 15.0002L13.2102 12.0002L10.2102 9.00016C9.92018 8.71016 9.92018 8.23016 10.2102 7.94016C10.5002 7.65016 10.9802 7.65016 11.2702 7.94016L14.8002 11.4702C15.0902 11.7602 15.0902 12.2402 14.8002 12.5302L11.2702 16.0602C11.1202 16.2102 10.9302 16.2802 10.7402 16.2802Z" fill="#A9B2B7"/>
</svg>
