<svg width="16" height="20" viewBox="0 0 16 20" fill="none" xmlns="http://www.w3.org/2000/svg">
<path d="M7.29 12.66C7.10526 12.8462 7.0011 13.0976 7 13.36C7.00026 13.494 7.02746 13.6266 7.08 13.75C7.17027 13.9619 7.33092 14.1361 7.53482 14.2433C7.73871 14.3504 7.97334 14.3839 8.19906 14.338C8.42478 14.2922 8.62776 14.1698 8.77369 13.9916C8.91962 13.8134 8.99956 13.5903 9 13.36C8.9989 13.0976 8.89474 12.8462 8.71 12.66C8.61704 12.5662 8.50644 12.4918 8.38458 12.4411C8.26272 12.3903 8.13201 12.3642 8 12.3642C7.86799 12.3642 7.73728 12.3903 7.61542 12.4411C7.49356 12.4918 7.38296 12.5662 7.29 12.66ZM15.63 1.65995C15.5138 1.56597 15.3781 1.49923 15.2327 1.46461C15.0873 1.43 14.9361 1.42841 14.79 1.45995C13.7214 1.6839 12.6183 1.68675 11.5486 1.46834C10.4789 1.24992 9.46524 0.814866 8.57 0.189952C8.4026 0.0738247 8.20373 0.0115967 8 0.0115967C7.79627 0.0115967 7.5974 0.0738247 7.43 0.189952C6.53401 0.813153 5.51997 1.24643 4.45029 1.46312C3.3806 1.6798 2.27789 1.67532 1.21 1.44995C1.06394 1.41841 0.912665 1.42 0.767301 1.45461C0.621936 1.48923 0.486176 1.55597 0.37 1.64995C0.253979 1.74407 0.160521 1.86299 0.0964924 1.99797C0.0324637 2.13295 -0.000507912 2.28056 5.94396e-08 2.42995V9.87995C-0.000888977 11.3137 0.340773 12.7269 0.996535 14.0019C1.6523 15.2769 2.60318 16.3768 3.77 17.21L7.42 19.81C7.58936 19.9305 7.7921 19.9953 8 19.9953C8.2079 19.9953 8.41064 19.9305 8.58 19.81L12.23 17.21C13.3968 16.3768 14.3477 15.2769 15.0035 14.0019C15.6592 12.7269 16.0009 11.3137 16 9.87995V2.42995C16.0005 2.28056 15.9675 2.13295 15.9035 1.99797C15.8395 1.86299 15.746 1.74407 15.63 1.64995V1.65995ZM14 9.87995C14.0008 10.9947 13.7353 12.0935 13.2257 13.085C12.716 14.0764 11.977 14.9318 11.07 15.58L8 17.77L4.93 15.58C4.02304 14.9318 3.28398 14.0764 2.77435 13.085C2.26471 12.0935 1.99923 10.9947 2 9.87995V3.57995C4.09643 3.75939 6.19604 3.27297 8 2.18995C9.80396 3.27297 11.9036 3.75939 14 3.57995V9.87995ZM8 5.35995C7.47306 5.35961 6.95533 5.49807 6.49891 5.76139C6.04248 6.02472 5.66347 6.40361 5.4 6.85995C5.28045 7.08849 5.25382 7.35439 5.32568 7.6021C5.39755 7.84981 5.56234 8.06017 5.78564 8.18925C6.00894 8.31832 6.27348 8.35613 6.524 8.29476C6.77451 8.2334 6.99163 8.07762 7.13 7.85995C7.21769 7.70808 7.34377 7.58194 7.4956 7.49418C7.64743 7.40642 7.81967 7.36013 7.99503 7.35996C8.1704 7.35979 8.34273 7.40573 8.49473 7.49319C8.64674 7.58065 8.77307 7.70654 8.86105 7.85824C8.94904 8.00994 8.99558 8.18211 8.99602 8.35748C8.99645 8.53284 8.95076 8.70524 8.86353 8.85738C8.7763 9.00951 8.6506 9.13603 8.49903 9.22424C8.34747 9.31245 8.17537 9.35925 8 9.35995C7.73478 9.35995 7.48043 9.46531 7.29289 9.65285C7.10536 9.84038 7 10.0947 7 10.36C7 10.6252 7.10536 10.8795 7.29289 11.0671C7.48043 11.2546 7.73478 11.36 8 11.36C8.79565 11.36 9.55871 11.0439 10.1213 10.4813C10.6839 9.91866 11 9.1556 11 8.35995C11 7.5643 10.6839 6.80124 10.1213 6.23863C9.55871 5.67602 8.79565 5.35995 8 5.35995Z" fill="#191B1D"/>
</svg>
