<svg width="20" height="16" viewBox="0 0 20 16" fill="none" xmlns="http://www.w3.org/2000/svg">
<path d="M15.0002 13.8333H5.00016C4.33712 13.8333 3.70124 13.5699 3.2324 13.1011C2.76355 12.6323 2.50016 11.9964 2.50016 11.3333V4.66667C2.50016 4.44565 2.41237 4.23369 2.25609 4.07741C2.0998 3.92113 1.88784 3.83333 1.66683 3.83333C1.44582 3.83333 1.23385 3.92113 1.07757 4.07741C0.921293 4.23369 0.833496 4.44565 0.833496 4.66667V11.3333C0.833496 12.4384 1.27248 13.4982 2.05388 14.2796C2.4408 14.6665 2.90012 14.9734 3.40565 15.1828C3.91117 15.3922 4.45299 15.5 5.00016 15.5H15.0002C15.2212 15.5 15.4331 15.4122 15.5894 15.2559C15.7457 15.0996 15.8335 14.8877 15.8335 14.6667C15.8335 14.4457 15.7457 14.2337 15.5894 14.0774C15.4331 13.9211 15.2212 13.8333 15.0002 13.8333ZM19.1668 6.28333C19.1581 6.20678 19.1414 6.13136 19.1168 6.05833V5.98333C19.0768 5.89765 19.0233 5.81889 18.9585 5.75L13.9585 0.75C13.8896 0.68518 13.8108 0.631734 13.7252 0.591667H13.6502L13.3835 0.5H6.66683C6.00379 0.5 5.3679 0.763392 4.89906 1.23223C4.43022 1.70107 4.16683 2.33696 4.16683 3V9.66667C4.16683 10.3297 4.43022 10.9656 4.89906 11.4344C5.3679 11.9033 6.00379 12.1667 6.66683 12.1667H16.6668C17.3299 12.1667 17.9658 11.9033 18.4346 11.4344C18.9034 10.9656 19.1668 10.3297 19.1668 9.66667V6.33333C19.1668 6.33333 19.1668 6.33333 19.1668 6.28333ZM14.1668 3.34167L16.3252 5.5H15.0002C14.7791 5.5 14.5672 5.4122 14.4109 5.25592C14.2546 5.09964 14.1668 4.88768 14.1668 4.66667V3.34167ZM17.5002 9.66667C17.5002 9.88768 17.4124 10.0996 17.2561 10.2559C17.0998 10.4122 16.8878 10.5 16.6668 10.5H6.66683C6.44582 10.5 6.23385 10.4122 6.07757 10.2559C5.92129 10.0996 5.8335 9.88768 5.8335 9.66667V3C5.8335 2.77899 5.92129 2.56702 6.07757 2.41074C6.23385 2.25446 6.44582 2.16667 6.66683 2.16667H12.5002V4.66667C12.5002 5.32971 12.7636 5.96559 13.2324 6.43443C13.7012 6.90327 14.3371 7.16667 15.0002 7.16667H17.5002V9.66667Z" fill="#7E8B92"/>
</svg>
