<svg width="18" height="18" viewBox="0 0 18 18" fill="none" xmlns="http://www.w3.org/2000/svg">
<path d="M13.4498 3.55002C13.2521 3.55002 13.0587 3.60867 12.8943 3.71855C12.7298 3.82843 12.6016 3.98461 12.526 4.16734C12.4503 4.35006 12.4305 4.55113 12.4691 4.74511C12.5076 4.93909 12.6029 5.11727 12.7427 5.25713C12.8826 5.39698 13.0608 5.49222 13.2547 5.53081C13.4487 5.56939 13.6498 5.54959 13.8325 5.4739C14.0152 5.39821 14.1714 5.27004 14.2813 5.10559C14.3912 4.94114 14.4498 4.7478 14.4498 4.55002C14.4498 4.2848 14.3445 4.03045 14.1569 3.84291C13.9694 3.65538 13.7151 3.55002 13.4498 3.55002ZM17.2832 5.56669C17.267 4.87527 17.1375 4.19119 16.8998 3.54169C16.6879 2.98596 16.3582 2.48275 15.9332 2.06669C15.5205 1.63954 15.0161 1.31183 14.4582 1.10835C13.8104 0.863488 13.1255 0.731029 12.4332 0.716687C11.5498 0.666687 11.2665 0.666687 8.99984 0.666687C6.73317 0.666687 6.44984 0.666687 5.5665 0.716687C4.87413 0.731029 4.18929 0.863488 3.5415 1.10835C2.98457 1.31389 2.48062 1.64132 2.0665 2.06669C1.63936 2.47934 1.31165 2.98372 1.10817 3.54169C0.863305 4.18947 0.730846 4.87431 0.716504 5.56669C0.666504 6.45002 0.666504 6.73335 0.666504 9.00002C0.666504 11.2667 0.666504 11.55 0.716504 12.4334C0.730846 13.1257 0.863305 13.8106 1.10817 14.4584C1.31165 15.0163 1.63936 15.5207 2.0665 15.9334C2.48062 16.3587 2.98457 16.6861 3.5415 16.8917C4.18929 17.1366 4.87413 17.269 5.5665 17.2834C6.44984 17.3334 6.73317 17.3334 8.99984 17.3334C11.2665 17.3334 11.5498 17.3334 12.4332 17.2834C13.1255 17.269 13.8104 17.1366 14.4582 16.8917C15.0161 16.6882 15.5205 16.3605 15.9332 15.9334C16.36 15.5188 16.6901 15.0152 16.8998 14.4584C17.1375 13.8089 17.267 13.1248 17.2832 12.4334C17.2832 11.55 17.3332 11.2667 17.3332 9.00002C17.3332 6.73335 17.3332 6.45002 17.2832 5.56669ZM15.7832 12.3334C15.7771 12.8623 15.6813 13.3864 15.4998 13.8834C15.3668 14.246 15.1531 14.5737 14.8748 14.8417C14.6045 15.1171 14.2775 15.3304 13.9165 15.4667C13.4196 15.6481 12.8955 15.744 12.3665 15.75C11.5332 15.7917 11.2248 15.8 9.03317 15.8C6.8415 15.8 6.53317 15.8 5.69984 15.75C5.15058 15.7603 4.60367 15.6757 4.08317 15.5C3.73799 15.3568 3.42597 15.144 3.1665 14.875C2.88991 14.6073 2.67887 14.2793 2.54984 13.9167C2.34638 13.4126 2.23354 12.8766 2.2165 12.3334C2.2165 11.5 2.1665 11.1917 2.1665 9.00002C2.1665 6.80835 2.1665 6.50002 2.2165 5.66669C2.22024 5.1259 2.31896 4.58997 2.50817 4.08335C2.65488 3.73161 2.88006 3.41807 3.1665 3.16669C3.41968 2.88016 3.73258 2.6526 4.08317 2.50002C4.59113 2.31672 5.1265 2.22092 5.6665 2.21669C6.49984 2.21669 6.80817 2.16669 8.99984 2.16669C11.1915 2.16669 11.4998 2.16669 12.3332 2.21669C12.8621 2.22275 13.3863 2.31856 13.8832 2.50002C14.2619 2.64056 14.6017 2.86906 14.8748 3.16669C15.1479 3.42267 15.3613 3.73563 15.4998 4.08335C15.685 4.5908 15.7809 5.1265 15.7832 5.66669C15.8248 6.50002 15.8332 6.80835 15.8332 9.00002C15.8332 11.1917 15.8248 11.5 15.7832 12.3334ZM8.99984 4.72502C8.15468 4.72667 7.32897 4.97879 6.62705 5.44954C5.92513 5.92028 5.37849 6.58852 5.0562 7.36982C4.73391 8.15111 4.65044 9.01041 4.81633 9.83913C4.98222 10.6678 5.39003 11.4288 5.98823 12.0258C6.58643 12.6229 7.34818 13.0292 8.17722 13.1935C9.00626 13.3578 9.86539 13.2726 10.6461 12.9488C11.4267 12.625 12.0939 12.0771 12.5633 11.3742C13.0327 10.6714 13.2832 9.84518 13.2832 9.00002C13.2843 8.43761 13.1742 7.88053 12.9592 7.36082C12.7442 6.84111 12.4286 6.36903 12.0306 5.97173C11.6325 5.57443 11.1598 5.25975 10.6397 5.04579C10.1195 4.83184 9.56225 4.72282 8.99984 4.72502ZM8.99984 11.775C8.45099 11.775 7.91448 11.6123 7.45813 11.3073C7.00178 11.0024 6.6461 10.569 6.43607 10.062C6.22604 9.5549 6.17108 8.99694 6.27816 8.45865C6.38523 7.92035 6.64953 7.42589 7.03762 7.0378C7.42571 6.64971 7.92016 6.38542 8.45846 6.27834C8.99676 6.17127 9.55472 6.22622 10.0618 6.43625C10.5688 6.64629 11.0022 7.00197 11.3072 7.45831C11.6121 7.91466 11.7748 8.45118 11.7748 9.00002C11.7748 9.36444 11.7031 9.72529 11.5636 10.062C11.4241 10.3986 11.2197 10.7046 10.9621 10.9622C10.7044 11.2199 10.3985 11.4243 10.0618 11.5638C9.72511 11.7032 9.36426 11.775 8.99984 11.775Z" fill="#555F65"/>
</svg>
