<svg width="18" height="14" viewBox="0 0 18 14" fill="none" xmlns="http://www.w3.org/2000/svg">
<path d="M17.3332 1.83333C16.7068 2.10507 16.0444 2.28471 15.3665 2.36666C16.0816 1.93943 16.6176 1.26731 16.8748 0.474992C16.2028 0.875044 15.4671 1.15691 14.6998 1.30832C14.187 0.752135 13.504 0.381905 12.758 0.255701C12.012 0.129497 11.2453 0.254457 10.578 0.610983C9.9107 0.967509 9.38062 1.53543 9.07087 2.22569C8.76113 2.91594 8.68925 3.68948 8.8665 4.42499C7.50769 4.35626 6.17854 4.00245 4.96538 3.38654C3.75223 2.77063 2.68221 1.9064 1.82484 0.849991C1.52412 1.37513 1.3661 1.96984 1.3665 2.57499C1.36544 3.13698 1.50335 3.69051 1.76797 4.1863C2.03258 4.68209 2.41569 5.10475 2.88317 5.41666C2.33982 5.40187 1.80808 5.25607 1.33317 4.99166V5.03332C1.33724 5.82073 1.61317 6.58257 2.11427 7.18996C2.61537 7.79736 3.31088 8.21303 4.08317 8.36666C3.78588 8.45713 3.47723 8.50483 3.1665 8.50833C2.95141 8.50581 2.73686 8.48631 2.52484 8.44999C2.74476 9.12733 3.17036 9.71928 3.7424 10.1435C4.31444 10.5676 5.00448 10.803 5.7165 10.8167C4.51417 11.7627 3.02974 12.279 1.49984 12.2833C1.22128 12.2842 0.94295 12.2675 0.666504 12.2333C2.22853 13.2419 4.04885 13.7773 5.90817 13.775C7.19125 13.7883 8.46412 13.5458 9.65243 13.0617C10.8408 12.5776 11.9207 11.8616 12.8292 10.9554C13.7377 10.0492 14.4565 8.97115 14.9436 7.78408C15.4308 6.59701 15.6765 5.32476 15.6665 4.04166C15.6665 3.89999 15.6665 3.74999 15.6665 3.59999C16.3204 3.11233 16.8844 2.51451 17.3332 1.83333Z" fill="#555F65"/>
</svg>
